<svg xmlns="http://www.w3.org/2000/svg" viewBox="0 0 1100 485" style="background:#19263b;font-family:Arial,sans-serif" role="img" aria-label="Full training configuration trials"><title>Full training configuration trials</title><text x="0" y="41" fill="#dce8f9" font-size="13">cpu/same e256 t1 w1</text><rect x="270" y="22" width="368.37" height="26" rx="3" fill="#55cad2"><title>cpu/same e256 t1 w1: 1080.9800 games/s</title></rect><path d="M635.9903543377351 35H652.2764458053729 M635.9903543377351 28V42 M652.2764458053729 28V42" stroke="#fff" stroke-width="2"/><text x="662.28" y="41" fill="#fff" font-size="13">1080.98 games/s</text><text x="0" y="83" fill="#dce8f9" font-size="13">cpu/same e256 t4 w1</text><rect x="270" y="64" width="550.25" height="26" rx="3" fill="#55cad2"><title>cpu/same e256 t4 w1: 1614.6954 games/s</title></rect><path d="M815.2065867351333 77H820.7131195016404 M815.2065867351333 70V84 M820.7131195016404 70V84" stroke="#fff" stroke-width="2"/><text x="830.71" y="83" fill="#fff" font-size="13">1614.70 games/s</text><text x="0" y="125" fill="#dce8f9" font-size="13">cpu/same e256 t1 w4</text><rect x="270" y="106" width="380.23" height="26" rx="3" fill="#55cad2"><title>cpu/same e256 t1 w4: 1115.7830 games/s</title></rect><path d="M638.4236412437542 119H655.8225002617344 M638.4236412437542 112V126 M655.8225002617344 112V126" stroke="#fff" stroke-width="2"/><text x="665.82" y="125" fill="#fff" font-size="13">1115.78 games/s</text><text x="0" y="167" fill="#dce8f9" font-size="13">cuda/same e256 t1 w1</text><rect x="270" y="148" width="483.66" height="26" rx="3" fill="#55cad2"><title>cuda/same e256 t1 w1: 1419.2805 games/s</title></rect><path d="M718.3925525744485 161H850.3571428571429 M718.3925525744485 154V168 M850.3571428571429 154V168" stroke="#fff" stroke-width="2"/><text x="860.36" y="167" fill="#fff" font-size="13">1419.28 games/s</text><text x="0" y="209" fill="#dce8f9" font-size="13">cuda/cpu e256 t1 w1</text><rect x="270" y="190" width="498.78" height="26" rx="3" fill="#55cad2"><title>cuda/cpu e256 t1 w1: 1463.6477 games/s</title></rect><path d="M751.1938742366002 203H790.1239338022058 M751.1938742366002 196V210 M790.1239338022058 196V210" stroke="#fff" stroke-width="2"/><text x="800.12" y="209" fill="#fff" font-size="13">1463.65 games/s</text><text x="0" y="251" fill="#dce8f9" font-size="13">cpu/same e1024 t1 w1</text><rect x="270" y="232" width="349.58" height="26" rx="3" fill="#55cad2"><title>cpu/same e1024 t1 w1: 1025.8227 games/s</title></rect><path d="M606.7877891043042 245H647.3288002792469 M606.7877891043042 238V252 M647.3288002792469 238V252" stroke="#fff" stroke-width="2"/><text x="657.33" y="251" fill="#fff" font-size="13">1025.82 games/s</text><text x="0" y="293" fill="#dce8f9" font-size="13">cpu/same e1024 t4 w1</text><rect x="270" y="274" width="549.38" height="26" rx="3" fill="#55cad2"><title>cpu/same e1024 t4 w1: 1612.1454 games/s</title></rect><path d="M807.1811553120357 287H837.558592015747 M807.1811553120357 280V294 M837.558592015747 280V294" stroke="#fff" stroke-width="2"/><text x="847.56" y="293" fill="#fff" font-size="13">1612.15 games/s</text><text x="0" y="335" fill="#dce8f9" font-size="13">cpu/same e1024 t1 w4</text><rect x="270" y="316" width="372.71" height="26" rx="3" fill="#55cad2"><title>cpu/same e1024 t1 w4: 1093.7165 games/s</title></rect><path d="M640.2097462109325 329H651.068936006511 M640.2097462109325 322V336 M651.068936006511 322V336" stroke="#fff" stroke-width="2"/><text x="661.07" y="335" fill="#fff" font-size="13">1093.72 games/s</text><text x="0" y="377" fill="#dce8f9" font-size="13">cuda/same e1024 t1 w1</text><rect x="270" y="358" width="496.24" height="26" rx="3" fill="#55cad2"><title>cuda/same e1024 t1 w1: 1456.2123 games/s</title></rect><path d="M757.9023302808619 371H839.4384660772938 M757.9023302808619 364V378 M839.4384660772938 364V378" stroke="#fff" stroke-width="2"/><text x="849.44" y="377" fill="#fff" font-size="13">1456.21 games/s</text><text x="0" y="419" fill="#dce8f9" font-size="13">cuda/cpu e1024 t1 w1</text><rect x="270" y="400" width="484.14" height="26" rx="3" fill="#55cad2"><title>cuda/cpu e1024 t1 w1: 1420.6991 games/s</title></rect><path d="M750.9496155079537 413H808.9408669001471 M750.9496155079537 406V420 M808.9408669001471 406V420" stroke="#fff" stroke-width="2"/><text x="818.94" y="419" fill="#fff" font-size="13">1420.70 games/s</text></svg>