<svg xmlns="http://www.w3.org/2000/svg" style="background:#19263b;font-family:Arial,sans-serif" viewBox="0 0 1100 233" role="img" aria-label="PPO implementation throughput"><title>PPO implementation throughput</title><text x="0" y="41" fill="#dce8f9" font-size="13">cpu / original</text><rect x="270" y="22" width="451.19" height="26" rx="3" fill="#55cad2"><title>cpu / original: 1055.1040 games/s</title></rect><path d="M720.9421806602081 35H725.8499047764926 M720.9421806602081 28V42 M725.8499047764926 28V42" stroke="#fff" stroke-width="2"/><text x="735.85" y="41" fill="#fff" font-size="13">1055.10 games/s</text><text x="0" y="83" fill="#dce8f9" font-size="13">cpu / optimized</text><rect x="270" y="64" width="463.71" height="26" rx="3" fill="#55cad2"><title>cpu / optimized: 1084.3789 games/s</title></rect><path d="M730.4579949347511 77H738.5800735883697 M730.4579949347511 70V84 M738.5800735883697 70V84" stroke="#fff" stroke-width="2"/><text x="748.58" y="83" fill="#fff" font-size="13">1084.38 games/s</text><text x="0" y="125" fill="#dce8f9" font-size="13">cuda / original</text><rect x="270" y="106" width="487.47" height="26" rx="3" fill="#55cad2"><title>cuda / original: 1139.9243 games/s</title></rect><path d="M739.1599026188023 119H758.3623715921457 M739.1599026188023 112V126 M758.3623715921457 112V126" stroke="#fff" stroke-width="2"/><text x="768.36" y="125" fill="#fff" font-size="13">1139.92 games/s</text><text x="0" y="167" fill="#dce8f9" font-size="13">cuda / optimized</text><rect x="270" y="148" width="539.10" height="26" rx="3" fill="#55cad2"><title>cuda / optimized: 1260.6772 games/s</title></rect><path d="M802.5965590986746 161H850.3571428571428 M802.5965590986746 154V168 M850.3571428571428 154V168" stroke="#fff" stroke-width="2"/><text x="860.36" y="167" fill="#fff" font-size="13">1260.68 games/s</text></svg>